<?xml version="1.0" encoding="utf-8"?>
<!-- Generator: Adobe Illustrator 25.2.0, SVG Export Plug-In . SVG Version: 6.00 Build 0)  -->
<svg version="1.1" id="Layer_1" xmlns="http://www.w3.org/2000/svg" xmlns:xlink="http://www.w3.org/1999/xlink" x="0px" y="0px"
	 viewBox="0 0 425.6 79.5" style="enable-background:new 0 0 425.6 79.5;" xml:space="preserve">
<style type="text/css">
	.st0{fill:#075485;}
	.st1{fill:none;}
	.st2{clip-path:url(#SVGID_2_);}
	.st3{clip-path:url(#SVGID_4_);}
	.st4{clip-path:url(#SVGID_6_);}
	.st5{clip-path:url(#SVGID_8_);}
	.st6{clip-path:url(#SVGID_10_);}
	.st7{clip-path:url(#SVGID_12_);}
</style>
<g id="Group_1045" transform="translate(-72.733 -651.215)">
	<path id="Path_1200" class="st0" d="M426.7,705h-6.2l-6,10l-5.9-10h-6.4l9.6,15.1v9.8h5.5V720L426.7,705z M399,726.4v-10.8h-10.8
		v4.7h5.5v3.6c-1.5,1-3.3,1.5-5.2,1.5c-4.4,0-7.5-3.3-7.5-7.9v-0.1c0-4.2,3.2-7.8,7.1-7.8c2.4,0,4.8,0.9,6.5,2.5l3.5-4.2
		c-2.7-2.4-6.2-3.6-9.8-3.4c-7.1-0.2-12.9,5.4-13.1,12.5c0,0,0,0,0,0c0,0.1,0,0.3,0,0.4v0.1c0,7.4,5.3,12.8,13.1,12.8
		C392.3,730.3,396.1,728.9,399,726.4L399,726.4z M364.4,717.5c0.2,4.1-3,7.6-7.1,7.7c-0.1,0-0.2,0-0.3,0c-4.2,0-7.6-3.4-7.5-7.6
		c0-0.1,0-0.2,0-0.2v-0.1c-0.2-4.1,3-7.6,7.1-7.7c0.1,0,0.2,0,0.3,0c4.2,0,7.6,3.4,7.5,7.6C364.4,717.3,364.4,717.4,364.4,717.5
		L364.4,717.5z M370.1,717.5L370.1,717.5c0-7.2-5.5-12.9-13.2-12.9c-7.1-0.2-13,5.4-13.3,12.5c0,0.1,0,0.3,0,0.4v0.1
		c0,7.1,5.5,12.8,13.2,12.8c7.1,0.2,13-5.4,13.3-12.5C370.1,717.7,370.1,717.6,370.1,717.5L370.1,717.5z M340.6,729.9v-5h-12.4V705
		h-5.5v24.9L340.6,729.9z M310.7,717.5c0.2,4.1-3,7.6-7.1,7.7c-0.1,0-0.2,0-0.3,0c-4.2,0-7.6-3.4-7.5-7.6c0-0.1,0-0.2,0-0.2v-0.1
		c-0.2-4.1,3-7.6,7.1-7.8c0.1,0,0.2,0,0.3,0c4.2,0,7.6,3.4,7.5,7.6C310.7,717.3,310.7,717.4,310.7,717.5L310.7,717.5z M316.4,717.4
		L316.4,717.4c0-7.2-5.5-12.9-13.2-12.9c-7.1-0.2-13,5.4-13.3,12.5c0,0.1,0,0.3,0,0.4v0.1c0,7.1,5.5,12.8,13.2,12.8
		c7.1,0.2,13-5.4,13.3-12.5C316.4,717.7,316.4,717.6,316.4,717.4 M283.7,729.9V705h-5.4v15.3L266.6,705h-5.1v24.9h5.4v-15.8
		l12.1,15.8L283.7,729.9z M254.1,729.9V705h-5.5v9.9h-10.1V705h-5.5v24.9h5.5v-10h10.1v10H254.1z M227.3,725.9l-3.5-3.5
		c-2,1.8-3.7,2.9-6.5,2.9c-4.3,0-7.2-3.6-7.2-7.8v-0.1c0-4.3,3-7.8,7.2-7.8c2.4,0.1,4.7,1.1,6.4,2.8l3.5-4c-2.6-2.6-6.1-4-9.8-3.8
		c-7-0.2-12.8,5.3-13,12.3c0,0.2,0,0.4,0,0.6v0.1c-0.1,6.9,5.4,12.7,12.3,12.8c0.1,0,0.3,0,0.4,0C221,730.5,224.7,728.9,227.3,725.9
		L227.3,725.9z M199.1,729.9V725h-13.5v-5.2h11.7v-4.9h-11.7v-5.1h13.3V705h-18.8v24.9H199.1z M174.5,710.1V705h-20.6v5.1h7.6v19.9
		h5.5v-19.8L174.5,710.1z M498.3,692.8V682h-10.8v4.7h5.5v3.6c-1.5,1-3.3,1.5-5.2,1.5c-4.4,0-7.5-3.3-7.5-7.9v-0.1
		c0-4.2,3.2-7.8,7.1-7.8c2.4,0,4.8,0.9,6.5,2.5l3.5-4.2c-2.7-2.4-6.2-3.6-9.8-3.4c-7.1-0.2-12.9,5.4-13.1,12.5c0,0,0,0,0,0
		c0,0.1,0,0.3,0,0.4v0.1c0,7.4,5.3,12.8,13.1,12.8C491.6,696.8,495.3,695.4,498.3,692.8 M468.3,696.4v-24.9h-5.4v15.3l-11.7-15.3
		h-5.1v24.9h5.4v-15.8l12.1,15.8L468.3,696.4z M438.5,671.5H433v24.9h5.5V671.5z M420.9,680c0,2.1-1.5,3.5-4.2,3.5h-5.5v-7.2h5.4
		C419.2,676.4,420.9,677.6,420.9,680L420.9,680z M427.2,696.4l-6.1-8.9c3.3-1.1,5.5-4.2,5.3-7.7v-0.1c0-5.1-3.5-8.2-9.4-8.2h-11.4
		v24.9h5.5v-8h4.3l5.3,8L427.2,696.4z M398.6,685.5v-14.1h-5.5v14.3c0,4-2,6-5.4,6s-5.4-2.1-5.4-6.2v-14.1h-5.5v14.2
		c0,7.3,4.1,11.1,10.8,11.1S398.6,693.1,398.6,685.5L398.6,685.5z M371.7,676.5v-5.1h-20.6v5h7.6v19.8h5.5v-19.8L371.7,676.5z
		 M347,692.5l-3.5-3.5c-2,1.8-3.7,2.9-6.5,2.9c-4.3,0-7.2-3.6-7.2-7.8V684c0-4.3,3-7.8,7.2-7.8c2.4,0.1,4.7,1.1,6.4,2.8l3.5-4
		c-2.6-2.6-6.1-4-9.8-3.8c-7-0.2-12.8,5.3-13,12.3c0,0.2,0,0.4,0,0.6v0.1c-0.1,6.9,5.4,12.7,12.3,12.8c0.1,0,0.3,0,0.4,0
		C340.7,697.1,344.5,695.4,347,692.5 M310.7,685.9h-6.6l3.3-8.1L310.7,685.9z M320.8,696.4l-10.7-25.1h-5.1l-10.7,25.1h5.6l2.3-5.6
		h10.5l2.3,5.6H320.8z M293.1,676.4v-5h-19v24.9h5.5v-9.6h11.9v-5h-11.9v-5.3L293.1,676.4z M267,685.5v-14.1h-5.5v14.3
		c0,4-2,6-5.4,6s-5.4-2.1-5.4-6.2v-14.1h-5.5v14.2c0,7.3,4.1,11.1,10.8,11.1S267,693.1,267,685.5z M238.3,696.4v-24.9h-5.4v15.3
		l-11.7-15.3h-5.1v24.9h5.4v-15.8l12.1,15.8L238.3,696.4z M201.1,685.9h-6.6l3.3-8.1L201.1,685.9z M211,696.4l-10.7-25.1h-5.1
		l-10.7,25.1h5.6l2.3-5.6H203l2.3,5.6H211z M178.8,696.4v-24.9h-5.9l-6.5,10.5l-6.5-10.5h-5.9v24.9h5.4v-16.2l6.9,10.5h0.1l7-10.6
		v16.3L178.8,696.4z"/>
	<rect id="Rectangle_692" x="72.7" y="651.2" class="st1" width="425.6" height="98.2"/>
	<rect id="Rectangle_693" x="72.7" y="651.2" class="st1" width="425.6" height="98.2"/>
	<rect id="Rectangle_694" x="72.7" y="651.2" class="st1" width="425.6" height="98.2"/>
	<path id="Path_1201" class="st0" d="M152.9,651.4v2.2h3.3v8.5h2.4v-8.5h3.3v-2.2L152.9,651.4z"/>
	<path id="Path_1202" class="st0" d="M171.9,651.4v4.2h-4.3v-4.2h-2.4v10.7h2.4v-4.3h4.3v4.3h2.4v-10.7H171.9z"/>
	<path id="Path_1203" class="st0" d="M178.5,651.4v10.7h8.1V660h-5.8v-2.2h5.1v-2.1h-5.1v-2.2h5.7v-2.1L178.5,651.4z"/>
	<path id="Path_1204" class="st0" d="M201.5,654.2l1.4,3.5h-2.8L201.5,654.2z M200.4,651.3l-4.6,10.8h2.4l1-2.4h4.5l1,2.4h2.5
		l-4.6-10.8L200.4,651.3z"/>
	<g id="Group_1033" transform="translate(72.733 651.215)">
		<g>
			<defs>
				<rect id="SVGID_1_" y="0" width="425.6" height="98.2"/>
			</defs>
			<clipPath id="SVGID_2_">
				<use xlink:href="#SVGID_1_"  style="overflow:visible;"/>
			</clipPath>
			<g id="Group_1032" class="st2">
				<path id="Path_1205" class="st0" d="M145.3,9.1c-0.2,0.4-0.5,0.8-0.8,1c-0.4,0.3-0.8,0.5-1.2,0.6c-0.5,0.2-1.1,0.2-1.6,0.2
					c-0.8,0-1.6-0.1-2.4-0.4c-0.8-0.3-1.5-0.7-2.1-1.3l1.4-1.7c0.5,0.4,1,0.7,1.5,0.9c0.5,0.2,1.1,0.4,1.7,0.4
					c0.4,0,0.8-0.1,1.1-0.3c0.3-0.2,0.4-0.4,0.4-0.7v0c0-0.1,0-0.3-0.1-0.4c-0.1-0.1-0.2-0.2-0.3-0.3c-0.2-0.1-0.4-0.2-0.7-0.3
					c-0.4-0.1-0.7-0.2-1.1-0.3c-0.5-0.1-1-0.3-1.5-0.4c-0.4-0.1-0.8-0.3-1.1-0.6c-0.3-0.2-0.5-0.5-0.7-0.9c-0.2-0.4-0.3-0.9-0.3-1.3
					v0c0-0.5,0.1-0.9,0.3-1.3c0.2-0.4,0.4-0.7,0.8-1c0.3-0.3,0.7-0.5,1.2-0.7c0.5-0.2,1-0.2,1.5-0.2c0.7,0,1.5,0.1,2.2,0.4
					c0.7,0.2,1.3,0.6,1.8,1L144,3.2c-0.4-0.3-0.9-0.6-1.4-0.8c-0.4-0.2-0.9-0.3-1.4-0.3c-0.4,0-0.7,0.1-1,0.3
					c-0.2,0.2-0.3,0.4-0.3,0.7v0c0,0.2,0,0.3,0.1,0.5c0.1,0.1,0.2,0.3,0.4,0.3c0.2,0.1,0.5,0.2,0.7,0.3c0.3,0.1,0.7,0.2,1.1,0.3
					c0.5,0.1,1,0.3,1.4,0.5c0.4,0.2,0.8,0.4,1.1,0.6c0.3,0.2,0.5,0.5,0.7,0.9c0.2,0.4,0.2,0.8,0.2,1.2v0
					C145.6,8.2,145.5,8.7,145.3,9.1"/>
				<path id="Path_1206" class="st0" d="M156.7,9.1c-0.2,0.4-0.5,0.8-0.8,1c-0.4,0.3-0.8,0.5-1.2,0.6c-0.5,0.2-1.1,0.2-1.6,0.2
					c-0.8,0-1.6-0.1-2.4-0.4c-0.8-0.3-1.5-0.7-2.1-1.3l1.4-1.7c0.5,0.4,1,0.7,1.5,0.9c0.5,0.2,1.1,0.4,1.7,0.4
					c0.4,0,0.8-0.1,1.1-0.3c0.3-0.2,0.4-0.4,0.4-0.7v0c0-0.1,0-0.3-0.1-0.4c-0.1-0.1-0.2-0.2-0.3-0.3c-0.2-0.1-0.4-0.2-0.7-0.3
					c-0.4-0.1-0.7-0.2-1.1-0.3c-0.5-0.1-1-0.3-1.5-0.4c-0.4-0.1-0.8-0.3-1.1-0.6c-0.3-0.2-0.6-0.5-0.7-0.9C149,4.2,149,3.7,149,3.3
					v0c0-0.5,0.1-0.9,0.3-1.3c0.2-0.4,0.4-0.7,0.8-1c0.3-0.3,0.7-0.5,1.2-0.7c0.5-0.2,1-0.2,1.5-0.2c0.7,0,1.5,0.1,2.2,0.4
					c0.7,0.2,1.3,0.6,1.8,1l-1.2,1.8c-0.4-0.3-0.9-0.6-1.4-0.8c-0.4-0.2-0.9-0.3-1.4-0.3c-0.4,0-0.7,0.1-1,0.3
					c-0.2,0.2-0.3,0.4-0.3,0.7v0c0,0.2,0,0.3,0.1,0.5c0.1,0.1,0.2,0.3,0.4,0.3c0.2,0.1,0.5,0.2,0.7,0.3c0.3,0.1,0.7,0.2,1.1,0.3
					c0.5,0.1,1,0.3,1.5,0.5c0.4,0.2,0.8,0.4,1.1,0.6c0.3,0.2,0.5,0.5,0.7,0.9c0.2,0.4,0.2,0.8,0.2,1.2v0
					C157,8.2,156.9,8.7,156.7,9.1"/>
				<path id="Path_1207" class="st0" d="M169.2,5.5c0-0.4-0.1-0.9-0.2-1.3c-0.3-0.8-0.9-1.5-1.7-1.8c-0.4-0.2-0.9-0.3-1.3-0.3
					c-0.4,0-0.9,0.1-1.3,0.3c-0.4,0.2-0.7,0.4-1,0.7c-0.3,0.3-0.5,0.7-0.7,1.1c-0.2,0.4-0.2,0.9-0.2,1.3v0c0,0.4,0.1,0.9,0.2,1.3
					c0.3,0.8,0.9,1.5,1.7,1.8c0.4,0.2,0.9,0.3,1.3,0.3c0.4,0,0.9-0.1,1.3-0.3c0.4-0.2,0.7-0.4,1-0.7c0.3-0.3,0.5-0.7,0.7-1.1
					C169.1,6.5,169.2,6,169.2,5.5L169.2,5.5z M171.2,7.7c-0.6,1.3-1.6,2.4-3,3c-1.5,0.6-3.1,0.6-4.6,0c-0.7-0.3-1.3-0.7-1.8-1.2
					c-0.5-0.5-0.9-1.1-1.2-1.7c-0.3-0.7-0.4-1.4-0.4-2.1v0c0-0.7,0.1-1.5,0.4-2.2c0.6-1.3,1.6-2.4,3-3c0.7-0.3,1.5-0.4,2.3-0.4
					c0.8,0,1.6,0.1,2.3,0.4c0.7,0.3,1.3,0.7,1.8,1.2c0.5,0.5,0.9,1.1,1.2,1.7c0.3,0.7,0.4,1.4,0.4,2.1v0
					C171.7,6.3,171.5,7,171.2,7.7"/>
				<path id="Path_1208" class="st0" d="M184,10c-0.6,0.5-1.4,0.8-2.1,1c-0.5,0.1-0.9,0.1-1.4,0.1c-0.8,0-1.5-0.1-2.2-0.4
					c-0.7-0.3-1.2-0.7-1.7-1.2c-0.5-0.5-0.9-1.1-1.1-1.8C175.1,7,175,6.3,175,5.6v0c0-0.7,0.1-1.5,0.4-2.2c0.3-0.7,0.7-1.3,1.1-1.8
					c0.5-0.5,1.1-0.9,1.8-1.2c0.7-0.3,1.5-0.4,2.3-0.4c0.5,0,0.9,0,1.4,0.1c0.4,0.1,0.8,0.2,1.1,0.3c0.3,0.1,0.6,0.3,0.9,0.5
					c0.3,0.2,0.6,0.4,0.8,0.7l-1.5,1.7c-0.4-0.4-0.8-0.7-1.3-0.9c-0.5-0.2-1-0.3-1.5-0.3c-0.4,0-0.9,0.1-1.2,0.3
					c-0.4,0.2-0.7,0.4-1,0.7c-0.3,0.3-0.5,0.7-0.6,1.1c-0.2,0.4-0.2,0.9-0.2,1.3v0c0,0.4,0.1,0.9,0.2,1.3c0.1,0.4,0.4,0.8,0.6,1.1
					c0.6,0.6,1.4,1,2.2,1c0.5,0,1.1-0.1,1.6-0.3c0.5-0.3,0.9-0.6,1.3-0.9l1.5,1.5C184.6,9.5,184.3,9.7,184,10"/>
			</g>
		</g>
	</g>
	<rect id="Rectangle_696" x="261.3" y="651.4" class="st0" width="2.4" height="10.7"/>
	<path id="Path_1209" class="st0" d="M272.7,654.2l1.4,3.5h-2.8L272.7,654.2z M271.7,651.3l-4.6,10.8h2.4l1-2.4h4.5l1,2.4h2.5
		l-4.6-10.8H271.7z"/>
	<path id="Path_1210" class="st0" d="M281,651.4v2.2h3.3v8.5h2.4v-8.5h3.3v-2.2L281,651.4z"/>
	<rect id="Rectangle_697" x="293.5" y="651.4" class="st0" width="2.4" height="10.7"/>
	<g id="Group_1035" transform="translate(72.733 651.215)">
		<g>
			<defs>
				<rect id="SVGID_3_" y="0" width="425.6" height="98.2"/>
			</defs>
			<clipPath id="SVGID_4_">
				<use xlink:href="#SVGID_3_"  style="overflow:visible;"/>
			</clipPath>
			<g id="Group_1034" class="st3">
				<path id="Path_1211" class="st0" d="M235.9,5.5c0-0.4-0.1-0.9-0.2-1.3c-0.3-0.8-0.9-1.5-1.7-1.8c-0.4-0.2-0.9-0.3-1.3-0.3
					c-0.4,0-0.9,0.1-1.3,0.3c-0.4,0.2-0.7,0.4-1,0.7c-0.3,0.3-0.5,0.7-0.7,1.1c-0.2,0.4-0.2,0.9-0.2,1.3v0c0,0.4,0.1,0.9,0.2,1.3
					c0.3,0.8,0.9,1.5,1.7,1.8c0.4,0.2,0.9,0.3,1.3,0.3c0.4,0,0.9-0.1,1.3-0.3c0.4-0.2,0.7-0.4,1-0.7c0.3-0.3,0.5-0.7,0.7-1.1
					C235.8,6.5,235.9,6,235.9,5.5L235.9,5.5z M238,7.7c-0.6,1.3-1.6,2.4-3,3c-1.5,0.6-3.1,0.6-4.6,0c-0.7-0.3-1.3-0.7-1.8-1.2
					c-0.5-0.5-0.9-1.1-1.2-1.7C227.1,7,227,6.3,227,5.6v0c0-0.7,0.1-1.5,0.4-2.2c0.3-0.7,0.7-1.3,1.2-1.8c0.5-0.5,1.1-0.9,1.8-1.2
					c1.5-0.6,3.1-0.6,4.6,0c0.7,0.3,1.3,0.7,1.8,1.2c0.5,0.5,0.9,1.1,1.2,1.7c0.3,0.7,0.4,1.4,0.4,2.1v0C238.4,6.3,238.2,7,238,7.7"
					/>
			</g>
		</g>
	</g>
	<path id="Path_1212" class="st0" d="M322.1,651.4v6.6l-5-6.6h-2.2v10.7h2.3v-6.8l5.2,6.8h2v-10.7H322.1z"/>
	<path id="Path_1213" class="st0" d="M335,651.4v10.7h2.4V658h5.1v-2.1h-5.1v-2.3h5.8v-2.1L335,651.4z"/>
	<g id="Group_1037" transform="translate(72.733 651.215)">
		<g>
			<defs>
				<rect id="SVGID_5_" y="0" width="425.6" height="98.2"/>
			</defs>
			<clipPath id="SVGID_6_">
				<use xlink:href="#SVGID_5_"  style="overflow:visible;"/>
			</clipPath>
			<g id="Group_1036" class="st4">
				<path id="Path_1214" class="st0" d="M282.4,5.5c0-0.4-0.1-0.9-0.2-1.3c-0.3-0.8-0.9-1.5-1.7-1.8c-0.4-0.2-0.9-0.3-1.3-0.3
					c-0.4,0-0.9,0.1-1.3,0.3c-0.4,0.2-0.7,0.4-1,0.7c-0.3,0.3-0.5,0.7-0.7,1.1c-0.2,0.4-0.2,0.9-0.2,1.3v0c0,0.4,0.1,0.9,0.2,1.3
					c0.3,0.8,0.9,1.5,1.7,1.8c0.4,0.2,0.9,0.3,1.3,0.3c0.4,0,0.9-0.1,1.3-0.3c0.4-0.2,0.7-0.4,1-0.7c0.3-0.3,0.5-0.7,0.7-1.1
					C282.3,6.5,282.4,6,282.4,5.5L282.4,5.5z M284.4,7.7c-0.6,1.3-1.6,2.4-3,3c-1.5,0.6-3.1,0.6-4.6,0c-0.7-0.3-1.3-0.7-1.8-1.2
					c-0.5-0.5-0.9-1.1-1.2-1.7c-0.3-0.7-0.4-1.4-0.4-2.1v0c0-0.7,0.1-1.5,0.4-2.2c0.3-0.7,0.7-1.3,1.2-1.8c0.5-0.5,1.1-0.9,1.8-1.2
					c1.5-0.6,3.1-0.6,4.6,0c0.7,0.3,1.3,0.7,1.8,1.2c0.5,0.5,0.9,1.1,1.2,1.7c0.3,0.7,0.4,1.4,0.4,2.1v0
					C284.9,6.3,284.7,7,284.4,7.7"/>
				<path id="Path_1215" class="st0" d="M295.2,3.8c0-0.4-0.2-0.9-0.5-1.1c-0.4-0.3-0.9-0.4-1.4-0.4H291v3.1h2.4
					c0.5,0,1-0.1,1.3-0.4C295,4.7,295.2,4.3,295.2,3.8L295.2,3.8z M295.1,10.9l-2.3-3.4H291v3.4h-2.4V0.2h4.9c1.1-0.1,2.1,0.3,3,0.9
					c0.7,0.7,1.1,1.6,1.1,2.6v0c0,0.8-0.2,1.5-0.6,2.1c-0.4,0.5-1,1-1.7,1.2l2.6,3.8H295.1z"/>
			</g>
		</g>
	</g>
	<g id="Group_1044" transform="translate(85.438 671.457)">
		<g id="Group_1039" transform="translate(31.835 43.628)">
			<path id="Path_1216" class="st0" d="M7.7,3C4.9,4.6,2.4,6.5,0,8.6c3.4,2.9,7,5.4,13,5.8c2.8,0.2,5.7-0.2,8.3-1.3
				c0.4-0.1,0.8-0.3,1.2-0.6c2-1.9,3.1-4.6,3.1-7.4c-0.5,0.1-1,0.1-1.4,0.1c-2.7-0.1-5.2-1.5-6.8-3.6c-0.4-0.5-0.8-1-1.1-1.6
				C13.2,0.5,10.3,1.5,7.7,3"/>
			<g>
				<defs>
					<path id="SVGID_7_" d="M7.7,3C4.9,4.6,2.4,6.5,0,8.6c3.4,2.9,7,5.4,13,5.8c2.8,0.2,5.7-0.2,8.3-1.3c0.4-0.1,0.8-0.3,1.2-0.6
						c2-1.9,3.1-4.6,3.1-7.4c-0.5,0.1-1,0.1-1.4,0.1c-2.7-0.1-5.2-1.5-6.8-3.6c-0.4-0.5-0.8-1-1.1-1.6C13.2,0.5,10.3,1.5,7.7,3"/>
				</defs>
				<clipPath id="SVGID_8_">
					<use xlink:href="#SVGID_7_"  style="overflow:visible;"/>
				</clipPath>
				<g id="Group_1038" class="st5">
					
						<rect id="Rectangle_700" x="-1.9" y="-4.8" transform="matrix(0.9011 -0.4337 0.4337 0.9011 -1.898 6.2753)" class="st0" width="29.4" height="24.3"/>
				</g>
			</g>
		</g>
		<g id="Group_1041" transform="translate(0.186 24.975)">
			<path id="Path_1218" class="st0" d="M3.6,7.7c-1.3,1.7-2.3,3.5-3,5.5c-0.3,1-0.5,2-0.6,3.1c0.2,1.5,0.8,2.9,1.7,4.2
				c0.6,0.9,1.6,1.5,2.7,1.6c0.1-0.2,0.1-0.5,0.2-0.8c0.6-1.1,1.4-1.9,2.5-2.5c2-1.1,4.3-1.6,6.6-1.3c0,0,2-5,1.9-8.9
				c-0.1-2.9-0.5-5.8-1.2-8.6C9.8,1.8,6.6,3.7,3.6,7.7"/>
			<g>
				<defs>
					<path id="SVGID_9_" d="M3.6,7.7c-1.3,1.7-2.3,3.5-3,5.5c-0.3,1-0.5,2-0.6,3.1c0.2,1.5,0.8,2.9,1.7,4.2c0.6,0.9,1.6,1.5,2.7,1.6
						c0.1-0.2,0.1-0.5,0.2-0.8c0.6-1.1,1.4-1.9,2.5-2.5c2-1.1,4.3-1.6,6.6-1.3c0,0,2-5,1.9-8.9c-0.1-2.9-0.5-5.8-1.2-8.6
						C9.8,1.8,6.6,3.7,3.6,7.7"/>
				</defs>
				<clipPath id="SVGID_10_">
					<use xlink:href="#SVGID_9_"  style="overflow:visible;"/>
				</clipPath>
				<g id="Group_1040" class="st6">
					
						<rect id="Rectangle_701" x="-4.3" y="-2.4" transform="matrix(0.8771 -0.4802 0.4802 0.8771 -4.3454 5.1245)" class="st0" width="24.4" height="26.9"/>
				</g>
			</g>
		</g>
		<g id="Group_1043" transform="translate(31.853 1.658)">
			<path id="Path_1220" class="st0" d="M3.4,0.1C0.4,0.4,0.1,1.6,0.1,1.6c1.6,1.7,2.1,3,1.7,6C1.5,9.2,1,10.8,0,12.2
				c1.8,2.2,3.9,4.2,6.3,5.7c2.8,1.6,5.7,2.9,8.7,3.9c0.3-0.8,0.5-1.6,0.7-2.4c1.1-7.7-1.4-14-5.9-17.8C9.2,1,8.4,0.5,7.6,0.1
				C6.8,0,6,0,5.2,0C4.6,0,4,0,3.4,0.1"/>
			<g>
				<defs>
					<path id="SVGID_11_" d="M3.4,0.1C0.4,0.4,0.1,1.6,0.1,1.6c1.6,1.7,2.1,3,1.7,6C1.5,9.2,1,10.8,0,12.2c1.8,2.2,3.9,4.2,6.3,5.7
						c2.8,1.6,5.7,2.9,8.7,3.9c0.3-0.8,0.5-1.6,0.7-2.4c1.1-7.7-1.4-14-5.9-17.8C9.2,1,8.4,0.5,7.6,0.1C6.8,0,6,0,5.2,0
						C4.6,0,4,0,3.4,0.1"/>
				</defs>
				<clipPath id="SVGID_12_">
					<use xlink:href="#SVGID_11_"  style="overflow:visible;"/>
				</clipPath>
				<g id="Group_1042" class="st7">
					<rect id="Rectangle_702" x="0" y="0" class="st0" width="16.8" height="21.8"/>
				</g>
			</g>
		</g>
		<path id="Path_1222" class="st0" d="M55.5,55.5c0,0,4.2-4.2,2.5-8.5c-0.1-0.3-1.6-3.8-7.6-4.2S38,46.4,36.6,47.4
			c-2.9,1.6-8,7.5-13.6,9.5c-2.6,1.1-5.4,1.5-8.2,1.3c-2.8-0.2-5.6-1.1-8-2.6c-4.1-2.3-6.5-8.3-6.5-8.3c2.4,2,5.4,3.3,8.5,3.8
			c5.1,0,7.4,0.8,12.6-4c2.9-2.3,5.5-4.8,8-7.5c3-3.5,7.2-6.1,13.8-6.1s11.6,2.6,14.5,6.2s3.9,6.6,2.4,11.1
			C59,52.9,57.5,54.5,55.5,55.5"/>
		<path id="Path_1223" class="st0" d="M62.4,42.1c-0.2,3-1,5.9-2.4,8.5c0,0-0.4-5.2-1.9-8c-0.9-1.7-2.2-3.2-3.9-4.4
			c-2.2-2.4-5.2-4-8.4-4.6c-5.7-1.1-3.4-0.9-7.9-1.6c-4.1-0.5-7.9-2.4-10.6-5.5c-2.7-3.1-4.4-8.1-4.8-11.4c-0.4-3.3,0.3-6.7,1.9-9.7
			c1.6-3.1,4.7-5.2,8.2-5.5c2.1,0,4.3,0.5,6.2,1.5c0,0-5.1-1.1-7.6,0.9s-2.6,4.8-2.1,7.8c0.8,3.7,4.1,6.8,6.2,8.5
			c0.9,0.7,1.5,1.2,1.7,1.3c4.4,3.1,10.7,4.6,13.4,6.1c1.9,1,3.8,2.1,5.5,3.5c1.3,1.3,2.5,2.6,3.6,4.1
			C61.3,36.1,62.3,39.1,62.4,42.1"/>
		<path id="Path_1224" class="st0" d="M0,43.1c0,0,1.3,5,6,5.8c0,0,3.1,0.5,6.2-2.8c1.7-1.7,4.1-6.3,4.5-12.1s-2.4-10.3-2.3-16.2
			c-0.1-2.8,0.5-5.6,1.7-8.1c1-2.6,2.7-4.8,4.9-6.5C24.3,0.4,32.4,0,32.4,0c-3.4,0.8-6.3,3-7.9,6c-1.6,4.5-2.3,7.7,0,14.3
			c1,2.7,1.7,7.2,2.5,9.6c1.5,4.4,0.8,9.2-1.8,13C21,49.4,15.1,53.1,8.6,52.6c-2.6-0.2-6.8-2.2-8.2-4.7C0.1,46.3-0.1,44.7,0,43.1"/>
	</g>
	<rect id="Rectangle_703" x="72.7" y="651.2" class="st1" width="425.6" height="98.2"/>
</g>
</svg>
