<?xml version="1.0" encoding="utf-8"?>
<!-- Generator: Adobe Illustrator 19.2.1, SVG Export Plug-In . SVG Version: 6.00 Build 0)  -->
<svg version="1.1" id="layer" xmlns="http://www.w3.org/2000/svg" xmlns:xlink="http://www.w3.org/1999/xlink" x="0px" y="0px"
	 viewBox="0 0 652 652" style="enable-background:new 0 0 652 652;" xml:space="preserve">
<style type="text/css">
	.st0{fill:#036CB6;}
	.st1{fill:#808285;}
</style>
<g>
	<path class="st0" d="M614.4,273.2c-3.7,0-6.4-2.8-6.4-6.5c0-3.9,2.9-6.5,6.4-6.5c3.4,0,6.3,2.6,6.3,6.5
		C620.7,270.6,617.8,273.2,614.4,273.2 M614.4,261.4c-2.8,0-5,2.2-5,5.3c0,2.9,1.9,5.3,5,5.3c2.8,0,4.9-2.2,4.9-5.3
		C619.4,263.6,617.2,261.4,614.4,261.4 M613.1,270.4H612v-7.2h2.7c1.7,0,2.6,0.6,2.6,2.1c0,1.3-0.8,1.8-1.9,2l2,3.1h-1.3l-1.9-3.1
		h-1.1V270.4z M614.4,266.3c0.9,0,1.7-0.1,1.7-1.1c0-0.9-0.8-1-1.6-1h-1.4v2.1H614.4z"/>
	<polygon points="190,353.7 194.3,353.7 193.4,374.7 193.5,374.7 201.5,353.7 206.1,353.7 205.2,374.8 205.3,374.8 213.3,353.7 
		217.6,353.7 206.4,380.7 201.4,380.7 202.3,360.3 202.2,360.3 194.4,380.7 189.4,380.7 	"/>
	<path d="M219,353.7h4.1l-1.9,8.9l0.1,0.1c1.5-1.7,3.5-2.8,5.6-2.8c3.1,0,4.8,1.4,3.9,5.5l-3.3,15.4h-4.1l3-14
		c0.6-2.6,0-3.7-2.1-3.7c-1.7,0-3.5,1.3-4.1,4l-2.9,13.7h-4.1L219,353.7z"/>
	<path d="M243.5,368.3l0.2-1.1c0.5-2.6,0.1-4.5-2.2-4.5c-2.6,0-4,2.6-4.5,5.2l-0.1,0.4H243.5z M236.3,371.1l-0.3,1.2
		c-0.6,2.7-1,6.2,2.1,6.2c2.9,0,4-3.3,4.2-4.5h3.9c-1,4.5-4.3,7.3-8.7,7.3c-3.3,0-7.3-1-5.2-10.4c1.1-5.3,3.5-11,9.9-11
		c5.7,0,6.5,3.4,5.3,9.1l-0.5,2.2H236.3z"/>
	<path d="M251.9,360.3h4.1l-0.7,3.2h0.1c1.4-2.3,3.2-3.7,5.5-3.7c0.5,0,0.7,0.1,1,0.2l-0.9,4.2c-0.3-0.1-1-0.2-1.7-0.2
		c-1.9,0-4.3,0.8-5.1,4.6l-2.6,12.2h-4.1L251.9,360.3z"/>
	<path d="M271.2,368.3l0.2-1.1c0.5-2.6,0.1-4.5-2.2-4.5c-2.6,0-4,2.6-4.5,5.2l-0.1,0.4H271.2z M264.1,371.1l-0.3,1.2
		c-0.6,2.7-1,6.2,2.1,6.2c2.9,0,4-3.3,4.2-4.5h3.9c-1,4.5-4.3,7.3-8.7,7.3c-3.3,0-7.3-1-5.2-10.4c1.1-5.3,3.5-11,9.9-11
		c5.7,0,6.5,3.4,5.3,9.1l-0.5,2.2H264.1z"/>
	<path class="st0" d="M301.9,371l-0.1,0.6c-1,4.9-4,9.7-10.4,9.7c-6.8,0-8-4.4-6-14.1c2.1-9.7,5.1-14.1,12-14.1
		c7.7,0,6.9,5.7,6.3,8.5l-0.1,0.5h-4.3l0.1-0.5c0.5-2.5,0.4-5.4-2.7-5.3c-3.2,0-5,2-6.9,10.7c-1.9,8.7-0.9,10.9,2.3,10.9
		c3.6,0,4.9-4,5.4-6.5l0.1-0.5H301.9z"/>
	<path class="st0" d="M309.2,378.2c3,0,4.1-2.5,5.2-7.7c1-4.5,1.1-7.7-1.9-7.7c-3,0-4.2,3.2-5.1,7.7
		C306.2,375.7,306.2,378.2,309.2,378.2 M313.1,359.8c5.9,0,6.7,4.4,5.3,10.7c-1.3,6.3-4.2,10.7-9.9,10.7c-5.6,0-6.6-4.4-5.3-10.7
		C304.6,364.2,307.2,359.8,313.1,359.8"/>
	<path class="st0" d="M323,360.3h3.9l-0.5,2.4h0.1c1.4-1.8,3.6-2.9,5.8-2.9c3.1,0,4.8,1.4,3.9,5.5l-3.3,15.4h-4.1l3-14
		c0.6-2.6,0-3.7-2.1-3.7c-1.7,0-3.5,1.3-4.1,4l-2.9,13.7h-4.1L323,360.3z"/>
	<path class="st0" d="M338.7,360.3h2.8l1.2-5.8h4.1l-1.2,5.8h3.3l-0.6,3h-3.3l-2.6,12.2c-0.3,1.6,0,2.2,1.4,2.2c0.6,0,1.1,0,1.5-0.1
		l-0.6,3c-0.9,0.2-2.1,0.3-3.4,0.3c-2.8,0-4-0.8-3.1-4.9l2.7-12.7H338L338.7,360.3z"/>
	<path class="st0" d="M358.6,368.3l0.2-1.1c0.6-2.6,0.1-4.5-2.2-4.5c-2.6,0-4,2.6-4.5,5.2l-0.1,0.4H358.6z M351.5,371.1l-0.3,1.2
		c-0.6,2.7-1,6.2,2.1,6.2c2.9,0,4-3.3,4.2-4.5h3.9c-1,4.5-4.3,7.3-8.7,7.3c-3.3,0-7.3-1-5.2-10.4c1.1-5.3,3.5-11,9.9-11
		c5.7,0,6.5,3.4,5.3,9.1l-0.5,2.2H351.5z"/>
	<path class="st0" d="M367,360.3h3.9l-0.5,2.4h0.1c1.4-1.8,3.6-2.9,5.8-2.9c3.1,0,4.8,1.4,3.9,5.5l-3.3,15.4h-4.1l3-14
		c0.6-2.6,0-3.7-2.1-3.7c-1.7,0-3.5,1.3-4.1,4l-2.9,13.7h-4.1L367,360.3z"/>
	<path class="st0" d="M382.7,360.3h2.8l1.2-5.8h4.1l-1.2,5.8h3.3l-0.6,3h-3.3l-2.6,12.2c-0.3,1.6,0,2.2,1.4,2.2c0.6,0,1.1,0,1.5-0.1
		l-0.6,3c-0.9,0.2-2.1,0.3-3.4,0.3c-2.8,0-4-0.8-3.1-4.9l2.7-12.7H382L382.7,360.3z"/>
	<path d="M416.6,371l-0.1,0.6c-1,4.9-4,9.7-10.4,9.7c-6.8,0-8-4.4-5.9-14.1c2.1-9.7,5.1-14.1,12-14.1c7.7,0,6.9,5.7,6.3,8.5
		l-0.1,0.5H414l0.1-0.5c0.5-2.5,0.4-5.4-2.7-5.3c-3.2,0-5,2-6.9,10.7c-1.8,8.7-0.9,10.9,2.3,10.9c3.6,0,4.9-4,5.4-6.5l0.1-0.5H416.6
		z"/>
	<path d="M423.9,378.2c3,0,4-2.5,5.2-7.7c1-4.5,1.1-7.7-1.9-7.7c-2.9,0-4.2,3.2-5.1,7.7C420.9,375.7,420.9,378.2,423.9,378.2
		 M427.8,359.8c5.9,0,6.7,4.4,5.3,10.7c-1.3,6.3-4.2,10.7-9.9,10.7c-5.6,0-6.6-4.4-5.3-10.7C419.3,364.2,421.9,359.8,427.8,359.8"/>
	<path d="M437.9,360.3h3.9l-0.5,2.4h0.1c1.4-1.8,3.6-2.9,5.5-2.9c2.9,0,3.8,1.4,4.1,3.1c1.6-2,3.4-3.1,5.8-3.1
		c2.9,0,4.6,1.5,3.8,5.4l-3.3,15.5h-4.1l3-14c0.6-2.6,0-3.7-1.7-3.7c-1.7,0-3.5,1.3-4.1,4l-2.9,13.7h-4.1l3-14
		c0.6-2.6,0-3.7-1.7-3.7c-1.6,0-3.5,1.3-4.1,4l-2.9,13.7h-4.1L437.9,360.3z"/>
	<path d="M473.4,368.3l0.2-1.1c0.5-2.6,0.1-4.5-2.2-4.5c-2.6,0-4,2.6-4.5,5.2l-0.1,0.4H473.4z M466.2,371.1l-0.2,1.2
		c-0.6,2.7-1,6.2,2.1,6.2c2.9,0,4-3.3,4.2-4.5h3.9c-1,4.5-4.3,7.3-8.7,7.3c-3.3,0-7.3-1-5.2-10.4c1.1-5.3,3.5-11,9.9-11
		c5.7,0,6.5,3.4,5.3,9.1l-0.5,2.2H466.2z"/>
	<path d="M489.3,366.3l0.1-0.5c0.3-1.6,0.1-3.1-2-3.1c-1.6,0-3.1,0.8-3.5,2.7c-0.3,1.6,0.2,2.2,2.2,3l2.4,0.9c2.8,1,3.9,2.7,3.2,5.9
		c-0.9,4.4-4.5,6.2-8.6,6.2c-5.2,0-6.2-2.4-5.4-6.3l0.2-0.8h3.6l-0.1,0.6c-0.5,2.3,0.1,3.6,2.4,3.6c2.2,0,3.6-1.1,4-3
		c0.3-1.5-0.3-2.5-1.6-3l-3.1-1.2c-2.8-1.1-3.8-2.6-3.1-5.9c0.8-3.8,4-5.6,8.2-5.6c5.2,0,5.7,3,5.2,5.6l-0.2,0.9H489.3z"/>
	<path d="M502.4,360.3h2.8l1.2-5.8h4.1l-1.2,5.8h3.3l-0.6,3h-3.3l-2.6,12.2c-0.3,1.6,0,2.2,1.4,2.2c0.6,0,1.1,0,1.5-0.1l-0.6,3
		c-0.9,0.2-2.1,0.3-3.4,0.3c-2.8,0-4-0.8-3.1-4.9l2.7-12.7h-2.8L502.4,360.3z"/>
	<path d="M516.9,378.2c3,0,4.1-2.5,5.2-7.7c1-4.5,1.1-7.7-1.9-7.7c-3,0-4.2,3.2-5.1,7.7C514,375.7,514,378.2,516.9,378.2
		 M520.9,359.8c5.9,0,6.7,4.4,5.3,10.7c-1.3,6.3-4.2,10.7-9.9,10.7c-5.6,0-6.6-4.4-5.3-10.7C512.3,364.2,514.9,359.8,520.9,359.8"/>
	<polygon points="539,353.7 543.3,353.7 538.3,377.1 548.8,377.1 548,380.7 533.2,380.7 	"/>
	<path d="M555.5,353.4h4.1l-0.9,4.1h-4.1L555.5,353.4z M554.1,360.3h4.1l-4.3,20.4h-4.1L554.1,360.3z"/>
	<path d="M562.1,363.4h-2.8l0.6-3h2.8l0.4-1.9c0.8-3.9,2.9-5.1,6.3-5.1c0.9,0,1.6,0,2.2,0.1l-0.7,3.1h-1.1c-1.5,0-2.3,0.6-2.6,1.9
		l-0.4,1.8h3.3l-0.6,3h-3.3l-3.7,17.4h-4.1L562.1,363.4z"/>
	<path d="M579.7,368.3l0.2-1.1c0.5-2.6,0.1-4.5-2.2-4.5c-2.6,0-4,2.6-4.5,5.2l-0.1,0.4H579.7z M572.5,371.1l-0.3,1.2
		c-0.6,2.7-1,6.2,2.1,6.2c2.9,0,4-3.3,4.2-4.5h3.9c-1,4.5-4.3,7.3-8.7,7.3c-3.3,0-7.2-1-5.2-10.4c1.1-5.3,3.5-11,9.9-11
		c5.7,0,6.5,3.4,5.3,9.1l-0.5,2.2H572.5z"/>
	<polygon points="80.8,329.9 36.2,281.1 36.2,329.9 20.7,329.9 20.7,260.5 37.4,260.5 81.9,309.3 81.9,260.5 97.4,260.5 97.4,329.9 
			"/>
	<path d="M191.5,329.9v-25.7l8.8-16.8h-8.8v-26.9l51.4,0c6.5,0,12.1,1.7,16.2,5.5c4.1,3.7,6.1,8.8,6.1,14.7
		c0.1,5.2-1.9,9.7-5.6,13.1c5.3,3.4,8.2,9.4,8.1,16.7c0,6.2-2.2,11.4-6.8,14.7c-4.5,3.3-10.7,4.7-18.7,4.7H191.5z M242.3,315.3
		c3.9,0,6.5-0.7,8-1.7c1.4-1,2-2.2,2.1-4.5c0-2.7-0.7-4.2-1.9-5.2c-1.2-1-3.3-1.7-6.6-1.7h-37.3v13.2H242.3z M243.1,287.4
		c2.3,0,3.9-0.6,5.3-1.9c1.4-1.3,1.9-2.6,2-4.3c0-2.1-0.6-3.3-1.7-4.4c-1.1-1-2.7-1.6-5.1-1.7l-36.9,0v12.3H243.1"/>
	<polygon class="st0" points="403.9,329.9 403.9,301.3 362,301.3 362,329.9 347.2,329.9 347.2,260.5 362,260.5 362,286.6 
		403.9,286.6 403.9,260.5 418.7,260.5 418.7,329.9 	"/>
	<path class="st0" d="M464.9,331.8c-10.8,0-20.1-3-27.5-9.2c-8.4-6.9-12.8-16.3-12.7-27.5c0-11,4.4-20.4,12.9-27.4
		c7.5-6.2,16.7-9.3,27.3-9.3c10.7,0,19.9,3.1,27.3,9.3c8.5,7,12.8,16.4,12.8,27.4c0,11.2-4.3,20.6-12.7,27.6
		C484.8,328.8,475.6,331.8,464.9,331.8L464.9,331.8z M446.7,279.5c-4.6,4.2-6.8,9.2-6.8,15.6c0,6.7,2.2,11.7,6.7,15.8
		c4.5,4,10.5,6.1,18.4,6.1c7.9,0,13.8-2.1,18.3-6.1c4.5-4.1,6.6-9.1,6.7-15.7c0-6.9-2.5-12.1-7.8-16.3c-4.5-3.6-10.1-5.5-17.1-5.5
		C457.2,273.3,451.3,275.4,446.7,279.5"/>
	<polygon class="st0" points="567.1,329.9 553.6,282.8 540.1,329.9 523.2,329.9 501.2,260.5 518,260.5 531.7,307.8 545.2,260.5 
		562,260.5 575.6,307.9 589.2,260.5 606,260.5 584.1,329.9 	"/>
	<polygon class="st1" points="176.2,299.7 187.2,278.5 175.6,278.5 170.5,288.5 	"/>
	<polygon class="st1" points="164.6,322.2 153.8,343.1 142.2,343.1 158.8,311 	"/>
	<polygon class="st1" points="127.4,316.4 102.9,364 114.2,364 138.9,316.4 	"/>
	<polygon class="st0" points="145.8,308.6 105.8,385.8 117.3,385.8 157.3,308.6 	"/>
	<polygon class="st0" points="184.5,289.8 143.2,369.6 154.7,369.6 196,289.8 	"/>
	<polygon points="152.7,260.5 136.4,260.5 100.4,329.9 117.6,329.9 144.6,277.7 164.3,315.5 166.2,319.3 174.7,302.9 	"/>
	<polygon points="178.2,329.9 188.7,329.9 183.4,319.8 	"/>
	<path class="st0" d="M335,293.2c-4.1-3.4-9.9-5.4-17.5-6.5c-2.7-0.4-8.1-0.8-16.2-1.4c-5.4-0.3-9.2-1-11.2-1.8
		c-2.9-1.2-3.4-2.2-3.5-3.9c0.1-1.6,0.7-2.7,3.3-4.1c2.6-1.3,6.9-2.1,12.7-2.1c8.5,0,16.9,2.3,25.3,7l1.8,1l1.3-1.6l7.6-9.3
		l-2.1-1.6c-9-6.7-20.2-10-33.2-10c-9.7,0-17.5,1.8-23.2,5.7c-5.7,3.8-8.9,9.6-8.8,16.4c-0.1,6.5,2.8,11.9,8.1,14.8
		c4.5,2.5,11.5,3.8,21.3,4.6c10.8,0.7,17.6,1.5,19.6,2.1c4.1,1.4,5.2,2.8,5.3,5.8c-0.1,2.6-1.1,4.3-4.1,6.1
		c-3.2,1.8-8.1,2.8-14.7,2.8c-10.1,0-19.4-2.9-28.2-8.8l-0.8-0.5l-8.4,11.6l0.7,0.7c8.9,7.7,21.2,11.5,36.5,11.5
		c10.6,0,19-1.9,25.1-6c6.1-4.1,9.4-10.4,9.4-17.9C341.2,301.6,339.2,296.6,335,293.2"/>
</g>
</svg>
